<?xml version="1.0" encoding="UTF-8"?>
<svg id="Camada_1" data-name="Camada 1" xmlns="http://www.w3.org/2000/svg" viewBox="0 0 1647.98 811.55">
  <defs>
    <style>
      .cls-1 {
        letter-spacing: -.03em;
      }

      .cls-2 {
        letter-spacing: .01em;
      }

      .cls-3 {
        letter-spacing: 0em;
      }

      .cls-4 {
        letter-spacing: -.02em;
      }

      .cls-5, .cls-6 {
        fill: #108e64;
      }

      .cls-7 {
        letter-spacing: 0em;
      }

      .cls-8 {
        letter-spacing: 0em;
      }

      .cls-9 {
        letter-spacing: 0em;
      }

      .cls-10 {
        letter-spacing: 0em;
      }

      .cls-6 {
        font-family: NaruSans-Bold, 'Naru Sans';
        font-size: 339.74px;
        font-weight: 700;
      }
    </style>
  </defs>
  <text class="cls-6" transform="translate(533.2 405.78)"><tspan class="cls-7" x="0" y="0">P</tspan><tspan class="cls-2" x="220.15" y="0">r</tspan><tspan class="cls-9" x="375.06" y="0">i</tspan><tspan class="cls-4" x="476.99" y="0">c</tspan><tspan x="686.95" y="0">e</tspan><tspan class="cls-3" x="0" y="261.62">B</tspan><tspan class="cls-8" x="224.91" y="261.62">o</tspan><tspan class="cls-10" x="445.06" y="261.62">a</tspan><tspan class="cls-1" x="682.53" y="261.62">r</tspan><tspan x="823.86" y="261.62">d</tspan></text>
  <g>
    <path class="cls-5" d="M428.25,382.91v209.26h-85c-21.68,0-39.26-17.58-39.26-39.26v-85H94.74c-21.68,0-39.26-17.58-39.26-39.26v-209.26h85c21.68,0,39.26,17.58,39.26,39.26v85h209.26c21.68,0,39.26,17.58,39.26,39.26Z"/>
    <path class="cls-5" d="M303.99,134.39v85h-85c-21.68,0-39.26-17.58-39.26-39.26v-45.74c0-21.68,17.58-39.26,39.26-39.26h45.75c21.68,0,39.26,17.58,39.26,39.26Z"/>
    <path class="cls-5" d="M303.99,631.42v45.74c0,21.68-17.58,39.26-39.26,39.26h-45.75c-21.68,0-39.26-17.58-39.26-39.26v-85h85c21.68,0,39.26,17.58,39.26,39.26Z"/>
  </g>
</svg>